<svg xmlns="http://www.w3.org/2000/svg" viewBox="0 0 367.488 401.217"><defs><style>.cls-1{isolation:isolate;}.cls-2{fill:#ff1000;}.cls-3{fill:#fbb900;}</style></defs><title>Asset 1</title><g id="Layer_2" data-name="Layer 2"><g id="Layer_1-2" data-name="Layer 1"><g class="cls-1"><rect class="cls-2" x="51.714" y="3.826" width="20.475" height="32.139"/><path class="cls-2" d="M77.22,76.762V108.9c-3.051,0-5.031-1.469-5.031-3.737V73.026C72.189,75.294,74.169,76.762,77.22,76.762Z"/><rect class="cls-2" x="77.22" y="76.776" width="54.27" height="32.139"/><rect class="cls-3" x="51.714" y="91.309" width="79.776" height="32.139"/><path class="cls-2" d="M131.454,72.936c3.06,0,5.04,1.51,5.04,3.854V91.4c0,2.275-1.98,3.744-5.04,3.744H51.6c-2.97,0-4.887-1.469-4.887-3.744V3.744C46.71,1.469,48.627,0,51.6,0H72.306c2.97,0,4.887,1.469,4.887,3.744V72.936Zm.036,3.854-54.27-.028c-3.051,0-5.031-1.468-5.031-3.736V3.826H51.714V91.309h79.74l.036-14.519"/><path class="cls-3" d="M72.189,3.826v69.2c0,2.268,1.98,3.736,5.031,3.736h54.234l.036,14.547H51.714V3.826Z"/><path class="cls-2" d="M51.6,95.143v32.139c-2.97,0-4.887-1.468-4.887-3.744V91.4C46.71,93.674,48.627,95.143,51.6,95.143Z"/><rect class="cls-2" x="51.597" y="95.143" width="79.857" height="32.139"/><path class="cls-2" d="M136.494,91.4v32.139c0,2.276-1.98,3.744-5.04,3.744V95.143C134.514,95.143,136.494,93.674,136.494,91.4Z"/></g><g class="cls-1"><path class="cls-2" d="M223.569,30.108V62.247c0-9.2-4.833-16.022-14.778-20.869a57.32,57.32,0,0,0-25.182-5.412c-9.621,0-18.108,1.675-25.227,4.978-9.918,4.612-14.742,11.582-14.742,21.3V30.108c0-9.721,4.824-16.691,14.742-21.3,7.119-3.3,15.606-4.978,25.227-4.978a57.306,57.306,0,0,1,25.182,5.413C218.736,14.085,223.569,20.911,223.569,30.108Z"/><path class="cls-3" d="M168.543,53.422c-4.023,3.13-6.066,6.929-6.066,11.307V32.59c0-4.378,2.043-8.177,6.066-11.307q0,16.068,0,32.136V21.282a23.291,23.291,0,0,1,14.7-4.735h0V48.686h0A23.3,23.3,0,0,0,168.543,53.422Z"/><path class="cls-3" d="M198.09,53.491a24.717,24.717,0,0,0-14.849-4.8V16.547a24.717,24.717,0,0,1,14.849,4.805c4.41,3.213,6.642,6.991,6.642,11.238V64.729C204.732,60.482,202.5,56.7,198.09,53.491Z"/><path class="cls-2" d="M199.728,32.59V64.729c0-3.2-1.665-5.97-5.085-8.466a18.768,18.768,0,0,0-11.4-3.744A17.432,17.432,0,0,0,172.107,56.1c-3.114,2.427-4.626,5.247-4.626,8.625V32.59c0-3.378,1.512-6.2,4.626-8.625A17.432,17.432,0,0,1,183.24,20.38a18.768,18.768,0,0,1,11.4,3.744C198.063,26.619,199.728,29.391,199.728,32.59Z"/><path class="cls-2" d="M204.732,62.663V94.8c0,4.405-2.187,8.211-6.507,11.313a25.14,25.14,0,0,1-14.985,4.613,23.5,23.5,0,0,1-14.688-4.661c-4.032-3.1-6.075-6.881-6.075-11.265V62.663c0,4.385,2.043,8.17,6.075,11.266a23.508,23.508,0,0,0,14.688,4.66,25.14,25.14,0,0,0,14.985-4.612C202.545,70.874,204.732,67.069,204.732,62.663Z"/><path class="cls-3" d="M148.082,110.864a1.71,1.71,0,0,1,0-.474V78.724a22.583,22.583,0,0,0,3.192,3.494q0,16.071,0,32.141A22.692,22.692,0,0,1,148.082,110.864Z"/><path class="cls-3" d="M148.082,110.864V78.724c-2.979-4.057-4.442-9.044-4.442-15.061l10.89,21.028L143.64,95.8l10.89,21.028C143.64,101.819,145.1,106.806,148.082,110.864Z"/><path class="cls-3" d="M151.275,114.359q0-16.071,0-32.141a26.832,26.832,0,0,0,3.256,2.473c6.84,4.392,16.623,6.618,29.079,6.618,26.892,0,39.96-9.038,39.96-27.646V95.8c0,18.608-13.068,27.647-39.96,27.647-12.456,0-22.239-2.227-29.079-6.619A26.911,26.911,0,0,1,151.275,114.359Z"/><path class="cls-2" d="M211.464,6.005c11.349,5.529,17.109,13.637,17.109,24.1V63.663c0,20.89-15.129,31.48-44.964,31.48-13.662,0-24.525-2.531-32.3-7.522-8.406-5.46-12.663-13.52-12.663-23.958V30.108c0-11.017,5.76-19.284,17.136-24.579C163.7,1.862,173.061,0,183.609,0A63.318,63.318,0,0,1,211.464,6.005Zm12.1,57.658V30.108c0-9.2-4.833-16.023-14.778-20.869a57.306,57.306,0,0,0-25.182-5.413c-9.621,0-18.108,1.676-25.227,4.978-9.918,4.613-14.742,11.583-14.742,21.3V63.663c0,9.39,3.564,16.271,10.89,21.028,6.84,4.392,16.623,6.618,29.079,6.618,26.892,0,39.96-9.038,39.96-27.646"/><path class="cls-2" d="M198.09,21.352c4.41,3.213,6.642,6.991,6.642,11.238V62.663c0,4.406-2.187,8.211-6.507,11.314a25.14,25.14,0,0,1-14.985,4.612,23.508,23.508,0,0,1-14.688-4.66c-4.032-3.1-6.075-6.881-6.075-11.266V32.59c0-4.378,2.043-8.177,6.066-11.307a23.289,23.289,0,0,1,14.7-4.736A24.72,24.72,0,0,1,198.09,21.352Zm1.638,41.311V32.59c0-3.2-1.665-5.971-5.085-8.466a18.768,18.768,0,0,0-11.4-3.744,17.432,17.432,0,0,0-11.133,3.585c-3.114,2.427-4.626,5.247-4.626,8.625V62.663c0,3.378,1.512,6.178,4.608,8.563a17.634,17.634,0,0,0,11.151,3.537,19.123,19.123,0,0,0,11.565-3.585c3.312-2.379,4.923-5.164,4.923-8.515"/><path class="cls-3" d="M208.791,9.238c9.945,4.847,14.778,11.673,14.778,20.87V63.663c0,18.608-13.068,27.646-39.96,27.646-12.456,0-22.239-2.226-29.079-6.618-7.326-4.757-10.89-11.638-10.89-21.028V30.108c0-9.721,4.824-16.691,14.742-21.3,7.119-3.3,15.606-4.978,25.227-4.978A57.32,57.32,0,0,1,208.791,9.238Zm-4.059,53.425V32.59c0-4.247-2.232-8.025-6.642-11.238a24.72,24.72,0,0,0-14.85-4.8,23.289,23.289,0,0,0-14.7,4.736c-4.023,3.13-6.066,6.929-6.066,11.307V62.663c0,4.385,2.043,8.17,6.075,11.266a23.508,23.508,0,0,0,14.688,4.66,25.14,25.14,0,0,0,14.985-4.612c4.32-3.1,6.507-6.908,6.507-11.314"/><path class="cls-2" d="M228.573,63.663V95.8c0,20.89-15.129,31.48-44.964,31.48-13.662,0-24.525-2.53-32.3-7.522-8.406-5.46-12.663-13.52-12.663-23.958V63.663c0,10.438,4.257,18.5,12.663,23.958,7.776,4.991,18.639,7.522,32.3,7.522C213.444,95.143,228.573,84.553,228.573,63.663Z"/></g><g class="cls-1"><path class="cls-2" d="M315.288,27.964V60.1c-.513-7.639-4.194-13.444-11.2-17.7-6.966-4.274-16.317-6.439-27.8-6.439-27.288,0-40.563,8.521-40.563,26.054V29.88c0-17.532,13.275-26.054,40.563-26.054,11.484,0,20.835,2.165,27.8,6.44C311.094,14.52,314.775,20.325,315.288,27.964Z"/><rect class="cls-3" x="297.414" y="27.964" width="17.874" height="32.139"/><path class="cls-3" d="M262.017,51.657c-4.95,2.655-7.452,6.136-7.452,10.363V29.88c0-4.226,2.5-7.708,7.452-10.362a29.7,29.7,0,0,1,14.364-3.426,29.363,29.363,0,0,1,12.627,3.143c4.842,2.31,7.668,5.24,8.406,8.729V60.1c-.738-3.488-3.564-6.419-8.406-8.728a29.365,29.365,0,0,0-12.627-3.144A29.7,29.7,0,0,0,262.017,51.657Z"/><path class="cls-2" d="M292.617,29.88V62.02c0-2.972-2.052-5.392-6.255-7.391a23.032,23.032,0,0,0-21.456.158c-3.6,1.931-5.346,4.3-5.346,7.233V29.88c0-2.937,1.746-5.3,5.346-7.232a23.032,23.032,0,0,1,21.456-.158C290.565,24.489,292.617,26.909,292.617,29.88Z"/><rect class="cls-2" x="292.617" y="31.797" width="27.738" height="32.139"/><rect class="cls-2" x="276.732" y="45.379" width="38.619" height="32.139"/><polygon class="cls-2" points="276.732 45.379 276.732 77.518 276.696 89.411 276.696 57.272 276.732 45.379"/><polygon class="cls-3" points="276.732 57.299 276.732 89.439 276.714 83.469 276.714 51.329 276.732 57.299"/><rect class="cls-3" x="276.732" y="57.299" width="20.826" height="32.139"/><rect class="cls-2" x="276.732" y="61.126" width="15.768" height="32.139"/><path class="cls-2" d="M276.732,61.126V93.265c-3.06,0-5.031-1.51-5.031-3.854V57.272C271.7,59.616,273.672,61.126,276.732,61.126Z"/><path class="cls-2" d="M297.558,59.216V91.355c0,16.2-11.61,19.6-21.348,19.6-6.957,0-12.483-2.1-16.425-6.267a18.54,18.54,0,0,1-5.22-13.334V59.216a18.542,18.542,0,0,0,5.22,13.334c3.942,4.164,9.468,6.267,16.425,6.267C285.948,78.817,297.558,75.418,297.558,59.216Z"/><path class="cls-3" d="M276.282,3.826c11.484,0,20.835,2.165,27.8,6.44,7.011,4.254,10.692,10.059,11.2,17.7H297.414c-.738-3.489-3.564-6.419-8.406-8.729a29.363,29.363,0,0,0-12.627-3.143,29.7,29.7,0,0,0-14.364,3.426c-4.95,2.654-7.452,6.136-7.452,10.362V59.216a18.542,18.542,0,0,0,5.22,13.334c3.942,4.164,9.468,6.267,16.425,6.267,9.738,0,21.348-3.4,21.348-19.6V57.3H276.732l-.036-11.92h38.655V59.216c0,11.217-2.889,19.4-8.6,24.317-6.03,5.163-16.281,7.776-30.474,7.776-13.032,0-23.148-2.833-30.069-8.418-6.966-5.612-10.494-13.582-10.494-23.675V29.88C235.719,12.348,248.994,3.826,276.282,3.826Z"/><polygon class="cls-3" points="276.714 51.329 276.696 45.379 276.696 57.272 276.714 51.337 276.714 51.329"/><path class="cls-3" d="M315.351,59.216V91.355c0,11.218-2.889,19.4-8.6,24.317-6.03,5.164-16.281,7.777-30.474,7.777-13.032,0-23.148-2.834-30.069-8.418-6.966-5.612-10.494-13.582-10.494-23.676V59.216c0,10.093,3.528,18.063,10.494,23.675,6.921,5.585,17.037,8.418,30.069,8.418,14.193,0,24.444-2.613,30.474-7.776C312.462,78.617,315.351,70.433,315.351,59.216Z"/><path class="cls-2" d="M320.355,59.216V91.355c0,12.183-3.321,21.221-9.873,26.868-7.02,6.012-18.531,9.059-34.2,9.059-14.454,0-25.794-3.233-33.7-9.618-7.875-6.342-11.862-15.2-11.862-26.309V59.216c0,11.107,3.987,19.966,11.862,26.309,7.9,6.384,19.242,9.618,33.7,9.618,15.669,0,27.18-3.048,34.2-9.06C317.034,80.437,320.355,71.4,320.355,59.216Z"/><path class="cls-2" d="M320.355,31.8H292.617V29.88c0-2.971-2.052-5.391-6.255-7.39a23.032,23.032,0,0,0-21.456.158c-3.6,1.931-5.346,4.3-5.346,7.232V59.216a15.35,15.35,0,0,0,4.257,11.072c3.006,3.165,7.056,4.7,12.393,4.7,10.467,0,15.687-4.419,16.29-13.864H276.732c-3.06,0-5.031-1.51-5.031-3.854V45.289c0-2.275,1.971-3.743,5.031-3.743h43.623v17.67c0,12.182-3.321,21.221-9.873,26.867-7.02,6.012-18.531,9.06-34.2,9.06-14.454,0-25.794-3.234-33.7-9.618-7.875-6.343-11.862-15.2-11.862-26.309V29.88C230.724,10.052,246.051,0,276.282,0c12.645,0,23.049,2.448,30.915,7.267,8.73,5.3,13.158,12.913,13.158,22.613ZM289.008,19.235c4.842,2.31,7.668,5.24,8.406,8.729h17.874c-.513-7.639-4.194-13.444-11.2-17.7-6.966-4.275-16.317-6.44-27.8-6.44-27.288,0-40.563,8.522-40.563,26.054V59.216c0,10.093,3.528,18.063,10.494,23.675,6.921,5.585,17.037,8.418,30.069,8.418,14.193,0,24.444-2.613,30.474-7.776,5.706-4.916,8.6-13.1,8.6-24.317V45.379H276.732L276.7,57.272l20.862.027v1.917c0,16.2-11.61,19.6-21.348,19.6-6.957,0-12.483-2.1-16.425-6.267a18.542,18.542,0,0,1-5.22-13.334V29.88c0-4.226,2.5-7.708,7.452-10.362a29.7,29.7,0,0,1,14.364-3.426,29.363,29.363,0,0,1,12.627,3.143"/></g><g class="cls-1"><rect class="cls-2" x="88.434" y="140.797" width="21.789" height="32.139"/><rect class="cls-2" x="152.541" y="140.797" width="21.186" height="32.139"/><path class="cls-2" d="M111.906,141.466v32.14a2.014,2.014,0,0,0-1.683-.669V140.8A2.017,2.017,0,0,1,111.906,141.466Z"/><path class="cls-2" d="M152.541,140.8v32.14a2.432,2.432,0,0,0-1.89.738v-32.14A2.436,2.436,0,0,1,152.541,140.8Z"/><polygon class="cls-2" points="127.386 158.351 127.386 190.49 111.906 173.606 111.906 141.466 127.386 158.351"/><polygon class="cls-2" points="150.651 141.535 150.651 173.675 134.28 190.545 134.28 158.406 150.651 141.535"/><path class="cls-2" d="M134.28,158.406v32.139a4.83,4.83,0,0,1-3.42,1.512V159.918A4.83,4.83,0,0,0,134.28,158.406Z"/><path class="cls-2" d="M130.86,159.918v32.139a4.6,4.6,0,0,1-3.474-1.567V158.351A4.6,4.6,0,0,0,130.86,159.918Z"/><path class="cls-3" d="M150.633,171.36v0Z"/><path class="cls-3" d="M116.154,204.713a4.491,4.491,0,0,0-3-1.328v-32.14a4.492,4.492,0,0,1,3,1.329Z"/><path class="cls-3" d="M112.158,203.527a2.682,2.682,0,0,0-2.052,2.882V174.27a2.681,2.681,0,0,1,2.052-2.882,3.612,3.612,0,0,1,1-.143h0v32.14h0A3.61,3.61,0,0,0,112.158,203.527Z"/><path class="cls-3" d="M149.593,203.349a4.5,4.5,0,0,0-2.911,1.185V172.4a4.5,4.5,0,0,1,2.911-1.185,3.7,3.7,0,0,1,1.04.15v0a2.724,2.724,0,0,1,2.025,2.91v32.139a2.723,2.723,0,0,0-2.025-2.909A3.7,3.7,0,0,0,149.593,203.349Z"/><polygon class="cls-3" points="130.86 185.528 130.86 217.668 116.154 204.713 116.154 172.574 130.86 185.528"/><polygon class="cls-3" points="146.682 172.395 146.682 204.534 130.86 217.668 130.86 185.528 146.682 172.395"/><polygon class="cls-2" points="127.233 188.176 127.233 220.315 115.11 209.629 115.11 177.489 127.233 188.176"/><polygon class="cls-2" points="147.654 177.234 147.654 209.374 134.262 220.488 134.262 188.348 147.654 177.234"/><path class="cls-2" d="M134.262,188.348v32.14a5.239,5.239,0,0,1-3.412,1.276v-32.14A5.239,5.239,0,0,0,134.262,188.348Z"/><path class="cls-2" d="M130.85,189.624v32.14a5.374,5.374,0,0,1-3.617-1.449V188.176A5.368,5.368,0,0,0,130.85,189.624Z"/><path class="cls-3" d="M173.727,140.8v87.484H152.658V174.27a2.724,2.724,0,0,0-2.025-2.91,3.7,3.7,0,0,0-1.04-.15,4.5,4.5,0,0,0-2.911,1.185L130.86,185.528l-14.706-12.954a4.489,4.489,0,0,0-3-1.329,3.612,3.612,0,0,0-1,.143,2.681,2.681,0,0,0-2.052,2.882v54.011H88.434V140.8h21.789a2.017,2.017,0,0,1,1.683.669l15.48,16.885a4.533,4.533,0,0,0,3.348,1.565,4.875,4.875,0,0,0,3.546-1.51l16.371-16.871a2.436,2.436,0,0,1,1.89-.738Z"/><rect class="cls-3" x="88.434" y="228.281" width="21.672" height="32.139"/><rect class="cls-3" x="152.658" y="228.281" width="21.069" height="32.139"/><path class="cls-2" d="M152.541,232.114v32.139c-2.97,0-4.887-1.468-4.887-3.743V228.37C147.654,230.645,149.571,232.114,152.541,232.114Z"/><rect class="cls-2" x="88.317" y="232.114" width="21.906" height="32.139"/><path class="cls-2" d="M178.731,228.37v32.14c0,2.275-1.917,3.743-4.887,3.743V232.114C176.814,232.114,178.731,230.645,178.731,228.37Z"/><path class="cls-2" d="M173.844,136.971c2.97,0,4.887,1.469,4.887,3.737V228.37c0,2.275-1.917,3.744-4.887,3.744h-21.3c-2.97,0-4.887-1.469-4.887-3.744V177.234l-13.392,11.114a5.239,5.239,0,0,1-3.412,1.276,5.368,5.368,0,0,1-3.617-1.448L115.11,177.489V228.37c0,2.275-1.917,3.744-4.887,3.744H88.317c-2.961,0-4.878-1.469-4.878-3.744V140.708c0-2.268,1.917-3.737,4.878-3.737h21.906a7.527,7.527,0,0,1,5.778,2.3l14.877,16.215,15.777-16.263a8.113,8.113,0,0,1,5.886-2.255Zm-.117,91.309V140.8H152.541a2.436,2.436,0,0,0-1.89.738L134.28,158.406a4.83,4.83,0,0,1-3.42,1.512,4.6,4.6,0,0,1-3.474-1.567l-15.48-16.885a2.017,2.017,0,0,0-1.683-.669H88.434V228.28h21.672V174.27a2.681,2.681,0,0,1,2.052-2.882,3.612,3.612,0,0,1,1-.143,4.489,4.489,0,0,1,3,1.329l14.706,12.954,15.822-13.134a4.508,4.508,0,0,1,2.911-1.184,3.7,3.7,0,0,1,1.04.15,2.724,2.724,0,0,1,2.025,2.91v54.01h21.069"/><rect class="cls-2" x="152.541" y="232.114" width="21.303" height="32.139"/><path class="cls-2" d="M88.317,232.114v32.139c-2.961,0-4.878-1.468-4.878-3.743V228.37C83.439,230.645,85.356,232.114,88.317,232.114Z"/><path class="cls-2" d="M115.11,228.37v32.14c0,2.275-1.917,3.743-4.887,3.743V232.114C113.193,232.114,115.11,230.645,115.11,228.37Z"/></g><g class="cls-1"><rect class="cls-2" x="186.336" y="140.797" width="18.819" height="32.139"/><rect class="cls-2" x="260.055" y="140.797" width="17.937" height="32.139"/><path class="cls-2" d="M283.036,140.512v32.139c0,.1,0,.21-.013.32V140.832C283.032,140.722,283.036,140.615,283.036,140.512Z"/><path class="cls-2" d="M210.2,140.348v32.14a3.719,3.719,0,0,1-.05.594v-32.14A3.7,3.7,0,0,0,210.2,140.348Z"/><path class="cls-2" d="M210.132,173.417v-32.14a3.065,3.065,0,0,1,.018-.335v32.14A3.051,3.051,0,0,0,210.132,173.417Z"/><path class="cls-3" d="M205.137,173.421v-32.14c0-.163.006-.325.018-.484v32.14C205.143,173.1,205.137,173.257,205.137,173.421Z"/><path class="cls-2" d="M260.055,140.8v32.14a5.777,5.777,0,0,0-.936,2.047c-.909,2.958-1.458,4.668-1.674,5.24V148.085c.216-.572.765-2.282,1.674-5.24A5.786,5.786,0,0,1,260.055,140.8Z"/><polygon class="cls-2" points="257.445 148.085 257.445 180.224 257.328 180.479 257.328 148.34 257.445 148.085"/><path class="cls-3" d="M189.468,148.829v32.14c-1.962-3.378-3.024-6.1-3.132-8.032V140.8C186.444,142.728,187.506,145.451,189.468,148.829Z"/><path class="cls-3" d="M277.992,140.8v32.14c-.351,1.841-1.62,4.571-3.762,8.115v-32.14C276.372,145.368,277.641,142.638,277.992,140.8Z"/><path class="cls-2" d="M283.023,140.832v32.139c-.342,2.372-1.737,5.516-4.266,9.7v-32.14C281.286,146.347,282.681,143.2,283.023,140.832Z"/><path class="cls-2" d="M185.04,150.622v32.139c-2.412-4.109-3.6-7.294-3.708-9.852V140.77C181.44,143.328,182.628,146.513,185.04,150.622Z"/><path class="cls-2" d="M205.137,173.421v-32.14c0,1.957.843,4.277,2.529,7.031.225.373.675,1.152,20.016,25.089V205.54c-19.341-23.937-19.791-24.716-20.016-25.088C205.98,177.7,205.137,175.377,205.137,173.421Z"/><path class="cls-2" d="M257.328,148.34v32.139c-2.295,3.909-9.747,12.2-22.8,25.372a4.656,4.656,0,0,1-3.356,1.474V175.186a4.654,4.654,0,0,0,3.356-1.475C247.581,160.543,255.033,152.249,257.328,148.34Z"/><path class="cls-2" d="M231.175,175.186v32.139a4.359,4.359,0,0,1-3.493-1.785V173.4A4.359,4.359,0,0,0,231.175,175.186Z"/><path class="cls-3" d="M274.23,181.052c-.477.744-5.227,6.691-31.689,38.1V187.017c26.462-31.413,31.212-37.36,31.689-38.1v32.14Z"/><polygon class="cls-3" points="220.383 187.535 220.383 219.674 189.468 180.969 189.468 148.829 220.383 187.535"/><polygon class="cls-2" points="216.117 189.541 216.117 221.68 185.04 182.761 185.04 150.622 216.117 189.541"/><path class="cls-2" d="M278.757,150.532v32.14c-.558.9-4.473,5.867-32.031,38.581a3.612,3.612,0,0,0-.945,2.392V191.506a3.617,3.617,0,0,1,.945-2.393C274.284,156.4,278.2,151.436,278.757,150.532Z"/><path class="cls-3" d="M242.523,219.178a6.824,6.824,0,0,0-1.746,4.467V191.506a6.827,6.827,0,0,1,1.746-4.468l.018-.021v32.139Z"/><path class="cls-2" d="M216.936,191.961V224.1a3.716,3.716,0,0,0-.819-2.42V189.541A3.712,3.712,0,0,1,216.936,191.961Z"/><path class="cls-3" d="M220.383,219.674c-.374-1.063,0-2.628,0-3.755V187.535a6.9,6.9,0,0,1,1.557,4.426V224.1A6.9,6.9,0,0,0,220.383,219.674Z"/><path class="cls-3" d="M277.992,140.8c-.351,1.841-1.62,4.571-3.762,8.115-.477.745-5.229,6.695-31.707,38.126a6.827,6.827,0,0,0-1.746,4.468v36.775H221.958l-.018-36.32a6.9,6.9,0,0,0-1.557-4.426l-30.915-38.706c-1.962-3.378-3.024-6.1-3.132-8.032h18.819c-.153,2.055.684,4.53,2.511,7.515.225.373.675,1.152,20.016,25.089a4.259,4.259,0,0,0,3.258,1.779,4.75,4.75,0,0,0,3.591-1.469c13.05-13.168,20.5-21.462,22.8-25.371l.117-.255c.216-.572.765-2.282,1.674-5.24a5.786,5.786,0,0,1,.936-2.048Z"/><rect class="cls-3" x="221.958" y="228.281" width="18.819" height="32.139"/><polygon class="cls-3" points="221.958 228.281 221.958 260.42 221.94 224.1 221.94 191.961 221.958 228.281"/><path class="cls-2" d="M221.958,232.114v32.139c-3.051,0-5.022-1.468-5.022-3.743V228.37C216.936,230.645,218.907,232.114,221.958,232.114Z"/><rect class="cls-2" x="221.958" y="232.114" width="18.801" height="32.139"/><path class="cls-2" d="M245.781,228.37v32.14c0,2.275-1.971,3.743-5.022,3.743V232.114C243.81,232.114,245.781,230.645,245.781,228.37Z"/><path class="cls-2" d="M281.862,138.026a3.143,3.143,0,0,1,1.161,2.806c-.342,2.372-1.737,5.515-4.266,9.7-.558.9-4.473,5.867-32.031,38.581a3.617,3.617,0,0,0-.945,2.393V228.37c0,2.275-1.971,3.744-5.022,3.744h-18.8c-3.051,0-5.022-1.469-5.022-3.744V191.961a3.712,3.712,0,0,0-.819-2.42L185.04,150.622c-2.412-4.109-3.6-7.294-3.708-9.852,0-2.33,1.908-3.8,4.869-3.8h19.242a5.431,5.431,0,0,1,3.717,1.124,2.946,2.946,0,0,1,.99,2.847c-.1.89.171,2.682,2.07,5.778.324.5,3.249,4.281,19.1,23.9,12.024-12.169,19.215-20.146,21.366-23.724.171-.476.585-1.73,1.566-4.916.36-1.227,1.476-5.012,5.418-5.012H278.3A5.457,5.457,0,0,1,281.862,138.026Zm-7.632,10.886c2.142-3.544,3.411-6.274,3.762-8.115H260.055a5.786,5.786,0,0,0-.936,2.048c-.909,2.958-1.458,4.668-1.674,5.24l-.117.255c-2.295,3.909-9.747,12.2-22.8,25.371a4.654,4.654,0,0,1-3.356,1.475,4.359,4.359,0,0,1-3.493-1.785c-19.341-23.937-19.791-24.716-20.016-25.089-1.827-2.985-2.664-5.46-2.511-7.515H186.336c.108,1.931,1.17,4.654,3.132,8.032l30.915,38.706a6.9,6.9,0,0,1,1.557,4.426v36.32h18.819l.018-36.775a6.827,6.827,0,0,1,1.746-4.468c26.478-31.431,31.23-37.381,31.707-38.126"/></g><g class="cls-1"><polygon class="cls-2" points="44.37 277.768 44.37 309.908 4.995 310.018 4.995 277.879 44.37 277.768"/><path class="cls-2" d="M78.822,299.369v32.139c0-7.184-3.321-12.541-10.152-16.381-6.192-3.461-14.364-5.219-24.3-5.219v-32.14c9.936,0,18.108,1.759,24.3,5.22C75.5,286.828,78.822,292.185,78.822,299.369Z"/><rect class="cls-3" x="28.125" y="287.862" width="18.333" height="32.139"/><path class="cls-3" d="M46.558,320h-.1V287.862h.1V320Z"/><path class="cls-3" d="M46.558,320V287.862c4.455.018,8.1,1.231,10.853,3.613l.031.027v32.139l-.031-.027C54.66,321.233,51.013,320.019,46.558,320Z"/><path class="cls-3" d="M28.125,287.862V320c-2.961,0-4.878,1.462-4.878,3.73V291.592C23.247,289.323,25.164,287.862,28.125,287.862Z"/><rect class="cls-2" x="28.242" y="291.695" width="18.216" height="32.139"/><path class="cls-3" d="M57.442,323.641V291.5a11.065,11.065,0,0,1,4.028,8.66V332.3A11.067,11.067,0,0,0,57.442,323.641Z"/><path class="cls-2" d="M56.466,300.162V332.3a7.706,7.706,0,0,0-2.8-6.15,10.56,10.56,0,0,0-7.209-2.316V291.7a10.56,10.56,0,0,1,7.209,2.317A7.706,7.706,0,0,1,56.466,300.162Z"/><path class="cls-2" d="M28.125,310.868c-2.961,0-4.878-1.468-4.878-3.729V291.592c0-2.268,1.917-3.73,4.878-3.73H46.458c4.5,0,8.181,1.213,10.953,3.613a11.074,11.074,0,0,1,4.059,8.687c0,6.908-4.86,10.706-13.671,10.706Zm.117-19.173v15.34H47.8c6.075,0,8.667-2.054,8.667-6.873a7.706,7.706,0,0,0-2.8-6.15,10.56,10.56,0,0,0-7.209-2.317H28.242"/><path class="cls-2" d="M28.125,310.868v32.14c-2.961,0-4.878-1.469-4.878-3.73V307.139C23.247,309.4,25.164,310.868,28.125,310.868Z"/><rect class="cls-2" x="28.125" y="310.868" width="19.674" height="32.139"/><path class="cls-2" d="M61.47,300.162V332.3c0,6.908-4.86,10.707-13.671,10.707v-32.14C56.61,310.868,61.47,307.07,61.47,300.162Z"/><path class="cls-3" d="M75.672,341.353a10.1,10.1,0,0,1-8.8,4.9V314.116a10.1,10.1,0,0,0,8.8-4.9,16.886,16.886,0,0,0,3.15-9.845v32.139A16.883,16.883,0,0,1,75.672,341.353Z"/><path class="cls-2" d="M83.817,299.369v32.139A20.011,20.011,0,0,1,80.1,343.139a15.556,15.556,0,0,1-5.949,5.343V316.343A15.564,15.564,0,0,0,80.1,311,20.011,20.011,0,0,0,83.817,299.369Z"/><rect class="cls-3" x="28.125" y="322.672" width="22.203" height="32.139"/><path class="cls-3" d="M59,357.085a16.682,16.682,0,0,0-8.671-2.274V322.672A16.678,16.678,0,0,1,59,324.945Q59,341.016,59,357.085Z"/><path class="cls-3" d="M59,357.085q0-16.069,0-32.14c.246.146.488.3.728.46v32.139C59.487,357.384,59.244,357.231,59,357.085Z"/><path class="cls-3" d="M28.125,322.672v32.139c-2.961,0-4.878,1.469-4.878,3.744v-32.14C23.247,324.14,25.164,322.672,28.125,322.672Z"/><rect class="cls-2" x="28.242" y="326.505" width="22.086" height="32.139"/><path class="cls-2" d="M84.933,342.4v32.139a24.958,24.958,0,0,0-10.161-20.573c-4.41-3.371-6.849-3.881-7.9-3.881v-32.14c1.053,0,3.492.51,7.9,3.882A24.956,24.956,0,0,1,84.933,342.4Z"/><path class="cls-3" d="M59.726,357.544V325.4a18.119,18.119,0,0,1,4.057,3.775,17.8,17.8,0,0,1,4.392,11.39v32.139a17.8,17.8,0,0,0-4.392-11.39A18.142,18.142,0,0,0,59.726,357.544Z"/><path class="cls-2" d="M63.171,340.57v32.139a14.666,14.666,0,0,0-3.636-9.37,11.284,11.284,0,0,0-9.207-4.695V326.505a11.284,11.284,0,0,1,9.207,4.695A14.666,14.666,0,0,1,63.171,340.57Z"/><path class="cls-2" d="M68.175,340.57v32.139c0,6.136-3.249,13.444-18.738,13.444V354.014C64.926,354.014,68.175,346.706,68.175,340.57Z"/><rect class="cls-2" x="28.125" y="354.014" width="21.312" height="32.139"/><path class="cls-2" d="M28.125,354.014v32.139c-2.961,0-4.878-1.468-4.878-3.744V350.27C23.247,352.545,25.164,354.014,28.125,354.014Z"/><path class="cls-3" d="M73.572,394c-4.173,2.2-9.3,3.278-15.5,3.278v-32.14c6.209,0,11.331-1.078,15.5-3.277V394Z"/><path class="cls-3" d="M74.772,321.824A24.956,24.956,0,0,1,84.933,342.4c0,6.8-2.3,12.292-6.858,16.332-4.806,4.309-11.349,6.405-20.007,6.405L5,365.252V277.879l39.375-.111c9.936,0,18.108,1.759,24.3,5.22,6.831,3.84,10.152,9.2,10.152,16.381a16.886,16.886,0,0,1-3.15,9.845,10.1,10.1,0,0,1-8.8,4.9v3.826C67.923,317.942,70.362,318.452,74.772,321.824Zm-25.335,32.19c15.489,0,18.738-7.308,18.738-13.444a17.8,17.8,0,0,0-4.392-11.39,16.526,16.526,0,0,0-13.455-6.508h-22.2c-2.961,0-4.878,1.468-4.878,3.743V350.27c0,2.275,1.917,3.744,4.878,3.744H49.437m-26.19-62.422v15.547c0,2.261,1.917,3.73,4.878,3.73H47.8c8.811,0,13.671-3.8,13.671-10.707a11.074,11.074,0,0,0-4.059-8.687c-2.772-2.4-6.453-3.613-10.953-3.613H28.125c-2.961,0-4.878,1.461-4.878,3.73"/><path class="cls-3" d="M73.572,394V361.857a22.213,22.213,0,0,0,4.5-3.128c4.554-4.04,6.858-9.535,6.858-16.332v32.139c0,6.8-2.3,12.293-6.858,16.333A22.209,22.209,0,0,1,73.572,394Z"/><polygon class="cls-3" points="58.068 365.134 58.068 397.274 4.995 397.391 4.995 365.252 58.068 365.134"/><path class="cls-2" d="M78.318,319.128c7.713,5.984,11.61,13.809,11.61,23.269,0,7.742-2.709,14.078-8.055,18.828-5.733,5.137-13.743,7.743-23.8,7.743l-53.19.11c-2.97,0-4.887-1.469-4.887-3.737V277.789c0-2.268,1.917-3.737,4.887-3.737l39.474-.117c11.025,0,20.2,2.006,27.261,5.964,8.091,4.55,12.195,11.1,12.195,19.47A20.011,20.011,0,0,1,80.1,311a15.564,15.564,0,0,1-5.949,5.343A34.72,34.72,0,0,1,78.318,319.128Zm-.243,39.6c4.554-4.04,6.858-9.535,6.858-16.332a24.956,24.956,0,0,0-10.161-20.573c-4.41-3.372-6.849-3.882-7.9-3.882v-3.826a10.1,10.1,0,0,0,8.8-4.9,16.886,16.886,0,0,0,3.15-9.845c0-7.184-3.321-12.541-10.152-16.381-6.192-3.461-14.364-5.22-24.3-5.22L5,277.879v87.373l53.073-.118c8.658,0,15.2-2.1,20.007-6.405"/><path class="cls-2" d="M50.328,322.672a16.526,16.526,0,0,1,13.455,6.508,17.8,17.8,0,0,1,4.392,11.39c0,6.136-3.249,13.444-18.738,13.444H28.125c-2.961,0-4.878-1.469-4.878-3.744V326.415c0-2.275,1.917-3.743,4.878-3.743Zm-.891,27.508c9.5,0,13.734-2.964,13.734-9.61a14.666,14.666,0,0,0-3.636-9.37,11.284,11.284,0,0,0-9.207-4.695H28.242V350.18H49.437"/><path class="cls-2" d="M89.928,342.4v32.139c0,7.742-2.709,14.078-8.055,18.829-5.733,5.136-13.743,7.742-23.8,7.742V368.968c10.053,0,18.063-2.606,23.8-7.743C87.219,356.475,89.928,350.139,89.928,342.4Z"/><path class="cls-2" d="M4.887,369.078v32.139c-2.97,0-4.887-1.468-4.887-3.736v-32.14C0,367.609,1.917,369.078,4.887,369.078Z"/><polygon class="cls-2" points="58.077 368.968 58.077 401.107 4.887 401.217 4.887 369.078 58.077 368.968"/></g><g class="cls-1"><rect class="cls-2" x="97.11" y="277.779" width="79.605" height="32.139"/><rect class="cls-3" x="120.654" y="288.534" width="56.061" height="32.139"/><path class="cls-3" d="M120.654,288.544v32.14c-3.06,0-5.031,1.468-5.031,3.744v-32.14C115.623,290.013,117.594,288.544,120.654,288.544Z"/><rect class="cls-2" x="120.654" y="292.378" width="56.025" height="32.139"/><path class="cls-2" d="M181.71,288.524v32.139c0,2.337-1.971,3.854-5.031,3.854V292.378C179.739,292.378,181.71,290.861,181.71,288.524Z"/><polygon class="cls-2" points="120.654 292.378 120.654 324.517 120.618 337.21 120.618 305.07 120.654 292.378"/><rect class="cls-2" x="120.654" y="308.924" width="40.113" height="32.139"/><path class="cls-2" d="M120.654,308.924v32.14c-3.06,0-5.031-1.51-5.031-3.854V305.07C115.623,307.414,117.594,308.924,120.654,308.924Z"/><rect class="cls-3" x="120.654" y="320.493" width="40.113" height="32.139"/><path class="cls-3" d="M120.654,320.507v32.139c-3.06,0-5.031,1.469-5.031,3.744V324.251C115.623,321.975,117.594,320.507,120.654,320.507Z"/><path class="cls-2" d="M165.771,320.479v32.14c0,2.344-1.917,3.854-4.887,3.854v-32.14C163.854,324.333,165.771,322.823,165.771,320.479Z"/><rect class="cls-2" x="120.654" y="324.333" width="40.23" height="32.139"/><polygon class="cls-2" points="120.654 324.333 120.654 356.473 120.618 382.409 120.618 350.27 120.654 324.333"/><path class="cls-2" d="M120.654,354.131V386.27c-3.06,0-5.031-1.516-5.031-3.861V350.27C115.623,352.614,117.594,354.131,120.654,354.131Z"/><rect class="cls-2" x="120.654" y="354.141" width="56.061" height="32.139"/><polygon class="cls-3" points="97.11 365.252 97.11 397.391 97.096 353.575 97.096 321.436 97.11 365.252"/><polygon class="cls-2" points="97.11 277.769 97.11 309.908 97.083 397.363 97.083 365.224 97.11 277.769"/><rect class="cls-3" x="97.11" y="365.238" width="79.605" height="32.139"/><path class="cls-2" d="M120.654,292.378l-.036,12.692,40.266.028c2.97,0,4.887,1.468,4.887,3.744v11.637c0,2.344-1.917,3.854-4.887,3.854h-40.23l-.036,25.937,56.061.028c3.06,0,5.031,1.509,5.031,3.854v11.072c0,2.344-1.971,3.854-5.031,3.854H97.11c-3.051,0-5.031-1.51-5.031-3.854V277.789c0-2.337,1.98-3.854,5.031-3.854h79.569c3.06,0,5.031,1.517,5.031,3.854v10.735c0,2.337-1.971,3.854-5.031,3.854Zm0,16.546c-3.06,0-5.031-1.51-5.031-3.854V292.288c0-2.275,1.971-3.744,5.031-3.744h56.025l.036-10.755-79.6-.02-.027,87.455,79.6.028.036-11.1-56.061-.021c-3.06,0-5.031-1.517-5.031-3.861V324.251c0-2.276,1.971-3.744,5.031-3.744h40.113V308.924H120.654"/><path class="cls-3" d="M97.1,353.548v0Zm0-32.14-.013-43.619v32.14l.008,27.543Z"/><path class="cls-3" d="M176.679,277.769l.036,10.755-56.061.02c-3.06,0-5.031,1.469-5.031,3.744V305.07c0,2.344,1.971,3.854,5.031,3.854h40.113v11.555l-40.113.028c-3.06,0-5.031,1.468-5.031,3.744V350.27c0,2.344,1.971,3.861,5.031,3.861h56.025l.036,11.093-79.6.028-.027-87.463Z"/><path class="cls-2" d="M181.71,365.224v32.139c0,2.344-1.971,3.854-5.031,3.854V369.078C179.739,369.078,181.71,367.568,181.71,365.224Z"/><path class="cls-2" d="M97.11,369.078v32.139c-3.051,0-5.031-1.51-5.031-3.854V365.224C92.079,367.568,94.059,369.078,97.11,369.078Z"/><rect class="cls-2" x="97.11" y="369.078" width="79.569" height="32.139"/></g><g class="cls-1"><rect class="cls-2" x="188.892" y="277.779" width="79.605" height="32.139"/><rect class="cls-3" x="212.436" y="288.534" width="56.061" height="32.139"/><path class="cls-3" d="M212.436,288.544v32.14c-3.06,0-5.031,1.468-5.031,3.744v-32.14C207.405,290.013,209.376,288.544,212.436,288.544Z"/><rect class="cls-2" x="212.436" y="292.378" width="56.025" height="32.139"/><path class="cls-2" d="M273.492,288.524v32.139c0,2.337-1.971,3.854-5.031,3.854V292.378C271.521,292.378,273.492,290.861,273.492,288.524Z"/><polygon class="cls-2" points="212.436 292.378 212.436 324.517 212.409 337.21 212.409 305.07 212.436 292.378"/><rect class="cls-2" x="212.436" y="308.924" width="40.113" height="32.139"/><path class="cls-2" d="M212.436,308.924v32.14c-3.06,0-5.031-1.51-5.031-3.854V305.07C207.405,307.414,209.376,308.924,212.436,308.924Z"/><rect class="cls-3" x="212.436" y="320.493" width="40.113" height="32.139"/><path class="cls-3" d="M212.436,320.507v32.139c-3.06,0-5.031,1.469-5.031,3.744V324.251C207.405,321.975,209.376,320.507,212.436,320.507Z"/><path class="cls-2" d="M257.553,320.479v32.14c0,2.344-1.917,3.854-4.887,3.854v-32.14C255.636,324.333,257.553,322.823,257.553,320.479Z"/><rect class="cls-2" x="212.436" y="324.333" width="40.23" height="32.139"/><polygon class="cls-2" points="212.436 324.333 212.436 356.473 212.409 382.409 212.409 350.27 212.436 324.333"/><path class="cls-2" d="M212.436,354.131V386.27c-3.06,0-5.031-1.516-5.031-3.861V350.27C207.405,352.614,209.376,354.131,212.436,354.131Z"/><rect class="cls-2" x="212.436" y="354.141" width="56.061" height="32.139"/><polygon class="cls-3" points="188.892 365.252 188.892 397.391 188.878 353.59 188.878 321.45 188.892 365.252"/><polygon class="cls-2" points="188.892 277.769 188.892 309.908 188.865 397.363 188.865 365.224 188.892 277.769"/><rect class="cls-3" x="188.892" y="365.238" width="79.605" height="32.139"/><path class="cls-2" d="M212.436,292.378l-.027,12.692,40.257.028c2.97,0,4.887,1.468,4.887,3.744v11.637c0,2.344-1.917,3.854-4.887,3.854h-40.23l-.027,25.937,56.052.028c3.06,0,5.031,1.509,5.031,3.854v11.072c0,2.344-1.971,3.854-5.031,3.854H188.892c-3.051,0-5.031-1.51-5.031-3.854V277.789c0-2.337,1.98-3.854,5.031-3.854h79.569c3.06,0,5.031,1.517,5.031,3.854v10.735c0,2.337-1.971,3.854-5.031,3.854Zm0,16.546c-3.06,0-5.031-1.51-5.031-3.854V292.288c0-2.275,1.971-3.744,5.031-3.744h56.025l.036-10.755-79.605-.02-.027,87.455,79.6.028.036-11.1-56.061-.021c-3.06,0-5.031-1.517-5.031-3.861V324.251c0-2.276,1.971-3.744,5.031-3.744h40.113V308.924H212.436"/><path class="cls-3" d="M268.461,277.769l.036,10.755-56.061.02c-3.06,0-5.031,1.469-5.031,3.744V305.07c0,2.344,1.971,3.854,5.031,3.854h40.113v11.555l-40.113.028c-3.06,0-5.031,1.468-5.031,3.744V350.27c0,2.344,1.971,3.861,5.031,3.861h56.025l.036,11.093-79.605.028-.027-87.463Z"/><polygon class="cls-3" points="188.878 321.496 188.878 321.45 188.865 277.789 188.865 309.929 188.874 337.555 188.878 321.496"/><path class="cls-2" d="M273.492,365.224v32.139c0,2.344-1.971,3.854-5.031,3.854V369.078C271.521,369.078,273.492,367.568,273.492,365.224Z"/><path class="cls-2" d="M188.892,369.078v32.139c-3.051,0-5.031-1.51-5.031-3.854V365.224C183.861,367.568,185.841,369.078,188.892,369.078Z"/><rect class="cls-2" x="188.892" y="369.078" width="79.569" height="32.139"/></g><g class="cls-1"><rect class="cls-2" x="280.647" y="277.768" width="42.498" height="32.139"/><rect class="cls-3" x="305.712" y="290.034" width="16.983" height="32.139"/><path class="cls-3" d="M305.712,290.034v32.139c-3.06,0-5.031,1.469-5.031,3.737V293.77C300.681,291.5,302.652,290.034,305.712,290.034Z"/><rect class="cls-2" x="305.712" y="293.86" width="16.983" height="32.139"/><path class="cls-2" d="M361.191,303.345v32.139c0-6.092-2.507-11.415-7.653-16.234-6.615-6.2-16.848-9.342-30.393-9.342v-32.14c13.545,0,23.778,3.144,30.393,9.342C358.684,291.93,361.191,297.253,361.191,303.345Z"/><path class="cls-3" d="M342.333,337.1c0-9.769-6.8-14.926-19.638-14.926V290.034c12.843,0,19.638,5.157,19.638,14.926Z"/><path class="cls-2" d="M337.329,304.96V337.1c0-7.57-4.644-11.1-14.634-11.1V293.86C332.685,293.86,337.329,297.39,337.329,304.96Z"/><polygon class="cls-2" points="305.712 293.86 305.712 325.999 305.676 346.6 305.676 314.46 305.712 293.86"/><path class="cls-2" d="M305.712,318.287v32.139c-3.06,0-5.031-1.468-5.031-3.743v-32.14C300.681,316.818,302.652,318.287,305.712,318.287Z"/><rect class="cls-2" x="305.712" y="318.287" width="16.983" height="32.139"/><path class="cls-2" d="M342.333,304.96V337.1c0,4.172-2,7.5-5.94,9.887a26.047,26.047,0,0,1-13.7,3.44V318.287a26.047,26.047,0,0,0,13.7-3.44C340.335,312.461,342.333,309.131,342.333,304.96Z"/><path class="cls-3" d="M357.237,348.613c-4.986,8.135-13.311,12.327-25.461,12.824V329.3c12.15-.5,20.475-4.688,25.461-12.823a25.17,25.17,0,0,0,3.933-12.155q.021-.49.021-.974v32.139c0,.323-.007.647-.021.974A25.167,25.167,0,0,1,357.237,348.613Z"/><path class="cls-2" d="M366.2,303.389v32.14c0,.351-.008.7-.023,1.06a28.326,28.326,0,0,1-4.419,13.651c-5.427,8.866-14.634,13.872-27.369,14.885V332.986c12.735-1.014,21.942-6.019,27.369-14.885a28.329,28.329,0,0,0,4.419-13.651Q366.2,303.918,366.2,303.389Z"/><polygon class="cls-2" points="360.81 365.252 360.81 397.391 329.067 366.125 329.067 333.985 360.81 365.252"/><path class="cls-3" d="M327.966,364V331.86a1.917,1.917,0,0,1,.282-.991c.387-.662,1.314-1.461,3.528-1.572v32.14c-2.214.11-3.141.91-3.528,1.572A1.915,1.915,0,0,0,327.966,364Z"/><path class="cls-3" d="M303.624,362.574a2.775,2.775,0,0,0-2.943,3.061V333.5a2.774,2.774,0,0,1,2.943-3.061,4.058,4.058,0,0,1,3.123,1.544v32.14A4.056,4.056,0,0,0,303.624,362.574Z"/><path class="cls-2" d="M327.966,364V331.86a3.069,3.069,0,0,0,1.1,2.125v32.14A3.073,3.073,0,0,1,327.966,364Z"/><polygon class="cls-3" points="336.51 364.583 336.51 396.722 306.747 364.119 306.747 331.979 336.51 364.583"/><path class="cls-3" d="M337.364,397.257a1.759,1.759,0,0,1-.854-.535V364.583a1.751,1.751,0,0,0,.854.534v32.14Z"/><rect class="cls-3" x="338.463" y="365.252" width="22.347" height="32.139"/><path class="cls-3" d="M337.364,397.257v-32.14a3.826,3.826,0,0,0,1.1.135v32.139A3.831,3.831,0,0,1,337.364,397.257Z"/><rect class="cls-3" x="280.647" y="365.252" width="20.034" height="32.139"/><path class="cls-2" d="M367.488,366.618v32.139a1.892,1.892,0,0,1-.315,1.033c-.414.655-1.395,1.427-3.645,1.427V369.078c2.25,0,3.231-.772,3.645-1.427A1.892,1.892,0,0,0,367.488,366.618Z"/><path class="cls-2" d="M366.4,364.514c1.4,1.406,1.2,2.482.774,3.137s-1.395,1.427-3.645,1.427H338.463c-3.285,0-5.112-1.255-6.057-2.31L305.676,337.5v27.846c0,2.268-1.926,3.737-4.914,3.737h-20.2c-2.979,0-4.914-1.469-4.914-3.737V277.679c0-2.275,1.917-3.744,4.887-3.744h42.615c15.12,0,26.649,3.62,34.263,10.749,6.129,5.749,9.081,12.4,8.766,19.766a28.329,28.329,0,0,1-4.419,13.651c-5.427,8.866-14.634,13.871-27.369,14.885Zm-27.936.738H360.81l-31.743-31.267c-1.386-1.378-1.215-2.454-.819-3.116s1.314-1.461,3.528-1.572c12.15-.5,20.475-4.688,25.461-12.823a25.17,25.17,0,0,0,3.933-12.155c.279-6.5-2.214-12.134-7.632-17.209-6.615-6.2-16.848-9.342-30.393-9.342h-42.5v87.484h20.034V333.5a2.774,2.774,0,0,1,2.943-3.061,4.058,4.058,0,0,1,3.123,1.544l29.763,32.6a2.313,2.313,0,0,0,1.953.669"/><path class="cls-2" d="M342.333,304.96c0,4.171-2,7.5-5.94,9.887a26.047,26.047,0,0,1-13.7,3.44H305.712c-3.06,0-5.031-1.469-5.031-3.744V293.77c0-2.268,1.971-3.736,5.031-3.736H322.7C335.538,290.034,342.333,295.191,342.333,304.96Zm-9.045,6.888a7.6,7.6,0,0,0,4.041-6.888c0-7.57-4.644-11.1-14.634-11.1H305.712l-.036,20.6H322.7a19.9,19.9,0,0,0,10.593-2.612"/><path class="cls-3" d="M331.776,329.3c-2.214.111-3.141.91-3.528,1.572s-.567,1.738.819,3.116l31.743,31.267H338.463a2.313,2.313,0,0,1-1.953-.669l-29.763-32.6a4.058,4.058,0,0,0-3.123-1.544,2.774,2.774,0,0,0-2.943,3.061v31.756H280.647V277.769h42.5c13.545,0,23.778,3.143,30.393,9.341,5.418,5.075,7.911,10.707,7.632,17.209a25.17,25.17,0,0,1-3.933,12.155C352.251,324.609,343.926,328.8,331.776,329.3Zm-9.081-11.01a26.047,26.047,0,0,0,13.7-3.44c3.942-2.386,5.94-5.716,5.94-9.887,0-9.769-6.8-14.926-19.638-14.926H305.712c-3.06,0-5.031,1.468-5.031,3.736v20.773c0,2.275,1.971,3.744,5.031,3.744H322.7"/><polygon class="cls-2" points="332.406 366.768 332.406 398.908 305.676 369.634 305.676 337.495 332.406 366.768"/><rect class="cls-2" x="280.557" y="369.078" width="20.205" height="32.139"/><path class="cls-2" d="M305.676,365.341v32.14c0,2.268-1.926,3.736-4.914,3.736V369.078C303.75,369.078,305.676,367.609,305.676,365.341Z"/><path class="cls-2" d="M280.557,369.078v32.139c-2.979,0-4.914-1.468-4.914-3.736v-32.14C275.643,367.609,277.578,369.078,280.557,369.078Z"/><path class="cls-2" d="M338.463,369.078v32.139c-3.285,0-5.112-1.254-6.057-2.309v-32.14C333.351,367.823,335.178,369.078,338.463,369.078Z"/><rect class="cls-2" x="338.463" y="369.078" width="25.065" height="32.139"/></g></g></g></svg>